<svg width="72" height="67" viewBox="0 0 72 67" fill="none" xmlns="http://www.w3.org/2000/svg">
<path fill-rule="evenodd" clip-rule="evenodd" d="M2 26.4711C2.00015 31.6368 4.14143 36.4752 7.87082 40.5069C8.24585 40.9123 8.22121 41.545 7.81579 41.92C7.41036 42.295 6.77768 42.2704 6.40264 41.865C2.38815 37.5252 0 32.218 0 26.4705L5.96046e-07 26.4694C0.00974375 17.5792 4.61452 10.922 11.4019 6.52934C18.1606 2.15532 27.1047 0.000559141 35.9906 1.08875e-07C44.8765 -0.000559102 53.8203 2.15307 60.5782 6.52688C67.3579 10.9149 71.9588 17.5636 71.976 26.4424C72.2012 30.606 70.8192 34.1866 68.7661 37.4103C66.9116 40.3221 64.4686 43.0011 62.122 45.5742C61.9332 45.7813 61.7449 45.9878 61.5576 46.1936C60.5695 49.1269 57.7407 54.4036 54.7333 58.8378C53.1875 61.117 51.5582 63.2283 50.063 64.7143C49.3183 65.4544 48.5698 66.077 47.8494 66.4815C47.1534 66.8723 46.3108 67.1554 45.476 66.9071C44.7245 66.6837 44.3262 66.0401 44.108 65.5106C43.8786 64.954 43.7417 64.2707 43.6497 63.5667C43.4944 62.3785 43.4437 60.9177 43.3944 59.4981C43.3852 59.2331 43.376 58.9695 43.3663 58.7094C43.3021 57.002 43.2114 55.4517 42.9512 54.3636C42.8194 53.8126 42.6697 53.4989 42.5485 53.3495C42.4863 53.2729 42.4742 53.2758 42.4516 53.2813C42.4476 53.2823 42.4432 53.2833 42.4381 53.284M2 26.4711C2.00905 18.3835 6.15678 12.3061 12.4885 8.2084C18.8492 4.09197 27.3911 2.00054 35.9908 2C44.5905 1.99946 53.1318 4.08982 59.4915 8.2059C65.8224 12.3033 69.9689 18.3813 69.9761 26.4714C69.9761 26.4897 69.9766 26.5079 69.9776 26.5262C70.18 30.1565 68.9917 33.333 67.0792 36.3359C65.323 39.0934 62.9985 41.6435 60.6302 44.2417C60.3984 44.496 60.1662 44.7508 59.934 45.0063C59.8374 45.1127 59.7648 45.2385 59.7212 45.3754C58.8884 47.9905 56.119 53.2316 53.0781 57.7152C51.563 59.9492 50.0166 61.9406 48.6531 63.2957C47.9685 63.9762 47.3668 64.4587 46.8702 64.7376C46.4325 64.9834 46.1923 65.0074 46.09 64.9979C46.0645 64.9657 46.0168 64.8935 45.9571 64.7484C45.8272 64.4335 45.7173 63.9542 45.6328 63.3076C45.4911 62.2231 45.4441 60.8794 45.3943 59.4551C45.3848 59.184 45.3752 58.91 45.3649 58.6343C45.3021 56.9643 45.2105 55.2121 44.8963 53.8984C44.7409 53.2487 44.5053 52.5867 44.1012 52.0889C43.6494 51.5325 42.9873 51.1931 42.1733 51.3017L42.1729 51.3017C39.9568 51.5982 39.6604 51.5858 38.6219 51.542C38.0764 51.519 37.3261 51.4874 35.9854 51.4874C28.4185 51.4874 21.4456 49.6634 15.8121 46.5927C15.3272 46.3284 14.7198 46.5072 14.4555 46.9922C14.1912 47.4771 14.37 48.0845 14.8549 48.3488C20.7985 51.5885 28.1033 53.4874 35.9854 53.4874C37.1779 53.4874 37.9002 53.5166 38.4576 53.5391C39.6007 53.5854 40.0501 53.6036 42.4378 53.2841M46.1103 65.0203C46.1103 65.0203 46.1097 65.0199 46.1087 65.0189C46.1098 65.0197 46.1103 65.0202 46.1103 65.0203ZM35.9995 10.5461C34.0807 10.5461 32.2193 12.4992 32.2193 15.3231C32.2193 18.147 34.0807 20.1001 35.9995 20.1001C37.9184 20.1001 39.7797 18.147 39.7797 15.3231C39.7797 12.4992 37.9184 10.5461 35.9995 10.5461ZM30.2193 15.3231C30.2193 11.7658 32.6383 8.54607 35.9995 8.54607C39.3607 8.54607 41.7797 11.7658 41.7797 15.3231C41.7797 18.8803 39.3607 22.1001 35.9995 22.1001C32.6383 22.1001 30.2193 18.8803 30.2193 15.3231ZM25.4273 17.5605C24.5071 14.8863 22.1066 13.6344 20.29 14.2512C18.4784 14.8662 17.352 17.3078 18.2719 19.9811C19.192 22.6552 21.5925 23.9071 23.4091 23.2904C25.2207 22.6754 26.3471 20.2338 25.4273 17.5605ZM19.6471 12.3573C22.8267 11.2778 26.1609 13.5457 27.3184 16.9097C28.4763 20.2746 27.2367 24.103 24.0521 25.1842C20.8724 26.2637 17.5382 23.9958 16.3807 20.6318C15.2228 17.2669 16.4624 13.4385 19.6471 12.3573ZM51.7168 14.263C49.9001 13.6462 47.4997 14.8982 46.5795 17.5723C45.6597 20.2456 46.7861 22.6872 48.5977 23.3022C50.4143 23.919 52.8148 22.667 53.7349 19.9929C54.6548 17.3196 53.5284 14.878 51.7168 14.263ZM44.6884 16.9216C45.8459 13.5575 49.1801 11.2896 52.3597 12.3691C55.5444 13.4503 56.7839 17.2787 55.6261 20.6436C54.4685 24.0077 51.1344 26.2755 47.9547 25.1961C44.7701 24.1148 43.5305 20.2865 44.6884 16.9216ZM26.8822 28.1639C24.5862 29.8173 23.2792 32.0135 23.2792 34.3387C23.2792 36.6638 24.5862 38.8601 26.8822 40.5135C29.1767 42.1658 32.397 43.2188 35.9996 43.2188C39.6022 43.2188 42.8224 42.1658 45.117 40.5135C47.413 38.8601 48.7199 36.6638 48.7199 34.3387C48.7199 32.0135 47.413 29.8173 45.117 28.1639C42.8224 26.5116 39.6022 25.4586 35.9996 25.4586C32.397 25.4586 29.1767 26.5116 26.8822 28.1639ZM25.7134 26.5409C28.3847 24.6173 32.0246 23.4586 35.9996 23.4586C39.9745 23.4586 43.6144 24.6173 46.2857 26.5409C48.9555 28.4634 50.7199 31.2072 50.7199 34.3387C50.7199 37.4701 48.9555 40.2139 46.2857 42.1364C43.6144 44.06 39.9745 45.2188 35.9996 45.2188C32.0246 45.2188 28.3847 44.06 25.7134 42.1364C23.0437 40.2139 21.2792 37.4701 21.2792 34.3387C21.2792 31.2072 23.0437 28.4634 25.7134 26.5409ZM9.04933 43.095C9.40263 42.6705 10.0332 42.6128 10.4577 42.9661C11.041 43.4516 11.6485 43.9226 12.2802 44.3789C12.7278 44.7023 12.8286 45.3274 12.5052 45.7751C12.1818 46.2228 11.5567 46.3235 11.109 46.0001C10.4411 45.5177 9.79753 45.0188 9.17822 44.5033C8.75373 44.15 8.69602 43.5195 9.04933 43.095Z" fill="black"/>
</svg>
